<mxfile host="app.diagrams.net" modified="2023-03-24T20:43:47.759Z" agent="Mozilla/5.0 (X11; Linux x86_64) AppleWebKit/537.36 (KHTML, like Gecko) Chrome/108.0.0.0 Safari/537.36" etag="c8n639EoJtBnw_81gz-T" version="21.1.0" type="github">
  <diagram id="a7Y6h2KUfqzOavqReWdY" name="Page-1">
    <mxGraphModel dx="1362" dy="746" grid="1" gridSize="10" guides="1" tooltips="1" connect="1" arrows="1" fold="1" page="1" pageScale="1" pageWidth="850" pageHeight="1100" math="0" shadow="0">
      <root>
        <mxCell id="0" />
        <mxCell id="1" parent="0" />
        <mxCell id="P13NX99MW8qI4qX8D52L-3" style="edgeStyle=orthogonalEdgeStyle;rounded=0;orthogonalLoop=1;jettySize=auto;html=1;entryX=0;entryY=0.5;entryDx=0;entryDy=0;strokeWidth=4;endArrow=block;endFill=1;" parent="1" source="P13NX99MW8qI4qX8D52L-1" target="P13NX99MW8qI4qX8D52L-2" edge="1">
          <mxGeometry relative="1" as="geometry" />
        </mxCell>
        <mxCell id="P13NX99MW8qI4qX8D52L-1" value="Gain Insight of&lt;br style=&quot;font-size: 18px;&quot;&gt;Publications" style="rounded=1;whiteSpace=wrap;html=1;strokeWidth=4;fontSize=18;fontStyle=1" parent="1" vertex="1">
          <mxGeometry x="40" y="40" width="160" height="80" as="geometry" />
        </mxCell>
        <mxCell id="P13NX99MW8qI4qX8D52L-5" style="edgeStyle=orthogonalEdgeStyle;rounded=0;orthogonalLoop=1;jettySize=auto;html=1;entryX=0;entryY=0.5;entryDx=0;entryDy=0;strokeWidth=4;endArrow=block;endFill=1;" parent="1" source="P13NX99MW8qI4qX8D52L-2" target="P13NX99MW8qI4qX8D52L-4" edge="1">
          <mxGeometry relative="1" as="geometry" />
        </mxCell>
        <mxCell id="P13NX99MW8qI4qX8D52L-2" value="Annotators&lt;br style=&quot;font-size: 18px;&quot;&gt;Arrangement and Training" style="rounded=1;whiteSpace=wrap;html=1;strokeWidth=4;fontSize=18;fontStyle=1" parent="1" vertex="1">
          <mxGeometry x="280" y="40" width="160" height="80" as="geometry" />
        </mxCell>
        <mxCell id="P13NX99MW8qI4qX8D52L-13" style="edgeStyle=orthogonalEdgeStyle;rounded=0;orthogonalLoop=1;jettySize=auto;html=1;entryX=0.5;entryY=0;entryDx=0;entryDy=0;strokeWidth=4;endArrow=block;endFill=1;" parent="1" source="P13NX99MW8qI4qX8D52L-4" target="P13NX99MW8qI4qX8D52L-6" edge="1">
          <mxGeometry relative="1" as="geometry" />
        </mxCell>
        <mxCell id="P13NX99MW8qI4qX8D52L-4" value="Sampling of OGFD&lt;br style=&quot;font-size: 18px;&quot;&gt;Editions" style="rounded=1;whiteSpace=wrap;html=1;strokeWidth=4;fontSize=18;fontStyle=1" parent="1" vertex="1">
          <mxGeometry x="520" y="40" width="160" height="80" as="geometry" />
        </mxCell>
        <mxCell id="P13NX99MW8qI4qX8D52L-9" style="edgeStyle=orthogonalEdgeStyle;rounded=0;orthogonalLoop=1;jettySize=auto;html=1;entryX=1;entryY=0.5;entryDx=0;entryDy=0;strokeWidth=4;endArrow=block;endFill=1;" parent="1" source="P13NX99MW8qI4qX8D52L-6" target="P13NX99MW8qI4qX8D52L-7" edge="1">
          <mxGeometry relative="1" as="geometry" />
        </mxCell>
        <mxCell id="P13NX99MW8qI4qX8D52L-6" value="Annotation Tool Selection" style="rounded=1;whiteSpace=wrap;html=1;strokeWidth=4;fontSize=18;fontStyle=1" parent="1" vertex="1">
          <mxGeometry x="520" y="160" width="160" height="80" as="geometry" />
        </mxCell>
        <mxCell id="P13NX99MW8qI4qX8D52L-10" style="edgeStyle=orthogonalEdgeStyle;rounded=0;orthogonalLoop=1;jettySize=auto;html=1;entryX=1;entryY=0.5;entryDx=0;entryDy=0;strokeWidth=4;endArrow=block;endFill=1;" parent="1" source="P13NX99MW8qI4qX8D52L-7" target="P13NX99MW8qI4qX8D52L-8" edge="1">
          <mxGeometry relative="1" as="geometry" />
        </mxCell>
        <mxCell id="P13NX99MW8qI4qX8D52L-7" value="Annotation&lt;br style=&quot;font-size: 18px;&quot;&gt;Process" style="rounded=1;whiteSpace=wrap;html=1;strokeWidth=4;fontSize=18;fontStyle=1;" parent="1" vertex="1">
          <mxGeometry x="280" y="160" width="160" height="80" as="geometry" />
        </mxCell>
        <mxCell id="P13NX99MW8qI4qX8D52L-8" value="Corpus Validation" style="rounded=1;whiteSpace=wrap;html=1;strokeWidth=4;fontSize=18;fontStyle=1" parent="1" vertex="1">
          <mxGeometry x="40" y="160" width="160" height="80" as="geometry" />
        </mxCell>
      </root>
    </mxGraphModel>
  </diagram>
</mxfile>
